Coordinates
version=1
nRows=22
nColumns=24
inDegrees=yes

Units are S.I. units (second, meters, Newtons, ...)
Angles are in degrees.

endheader
time	pelvis_tilt	pelvis_list	pelvis_rotation	pelvis_tx	pelvis_ty	pelvis_tz	hip_flexion_r	hip_adduction_r	hip_rotation_r	knee_angle_r	ankle_angle_r	subtalar_angle_r	mtp_angle_r	hip_flexion_l	hip_adduction_l	hip_rotation_l	knee_angle_l	ankle_angle_l	subtalar_angle_l	mtp_angle_l	lumbar_extension	lumbar_bending	lumbar_rotation
      2.50000000	     49.82421533	      1.97666528	     -1.83012422	      0.75241808	      0.96039902	     -0.27353379	     18.26107167	    -13.68833277	      8.51550949	    -64.62417952	      7.86217457	     17.06490315	    -34.75209092	     17.49895759	     -9.24083152	      5.17784706	   -115.72767477	      0.67772044	     12.91545766	    -70.56653844	      0.00000000	      0.00000000	      0.00000000
      2.51000000	     49.73395076	      1.97617776	     -1.79568698	      0.75256298	      0.96037119	     -0.27382902	     18.31531154	    -13.75213335	      8.40661519	    -64.59148678	      7.89277278	     17.10919069	    -34.73037939	     17.76894118	     -9.17382140	      5.54256489	   -115.44875802	      1.28158957	     13.30885918	    -67.95249966	      0.00000000	      0.00000000	      0.00000000
      2.52000000	     49.66582687	      1.96561034	     -1.71214221	      0.75265015	      0.96028282	     -0.27425517	     18.33935368	    -13.82234974	      8.24862235	    -64.56392021	      7.96093307	     17.15090524	    -34.71505569	     18.04037711	     -9.05565051	      5.92855843	   -115.05121585	      2.17841236	     14.38957078	    -64.36414631	      0.00000000	      0.00000000	      0.00000000
      2.53000000	     49.64194916	      1.95197008	     -1.60052091	      0.75279586	      0.96010656	     -0.27458264	     18.32949802	    -13.90098510	      8.07375011	    -64.53294026	      8.07227642	     17.17381504	    -34.80772297	     18.29303049	     -8.90442682	      6.39397237	   -114.60477810	      3.26511526	     16.18509234	    -59.98754547	      0.00000000	      0.00000000	      0.00000000
      2.54000000	     49.66010062	      1.95483678	     -1.50834201	      0.75310619	      0.95982368	     -0.27465294	     18.29457567	    -14.00665528	      7.92643282	    -64.48431290	      8.23648631	     17.16049590	    -35.10295150	     18.48597672	     -8.75634501	      7.01559551	   -114.14334140	      4.38747660	     18.55722983	    -55.06706277	      0.00000000	      0.00000000	      0.00000000
      2.55000000	     49.69588697	      1.99456721	     -1.49030106	      0.75344632	      0.95953175	     -0.27479637	     18.24374496	    -14.15856418	      7.84098218	    -64.40430097	      8.46919987	     17.09598557	    -35.67140282	     18.58182076	     -8.64783781	      7.83094596	   -113.63368175	      5.37099656	     21.19211464	    -49.89913845	      0.00000000	      0.00000000	      0.00000000
      2.56000000	     49.72775559	      2.06858580	     -1.56931710	      0.75354193	      0.95958221	     -0.27555857	     18.17138228	    -14.34933731	      7.81531552	    -64.28405072	      8.79067972	     16.97275790	    -36.54777427	     18.58806624	     -8.58494715	      8.75865707	   -112.96550120	      6.05527303	     23.64096174	    -44.81473702	      0.00000000	      0.00000000	      0.00000000
      2.57000000	     49.75847027	      2.13867946	     -1.70210702	      0.75341839	      0.96012309	     -0.27674306	     18.05600832	    -14.53159886	      7.80120261	    -64.11487031	      9.21975989	     16.79518925	    -37.72470945	     18.57059559	     -8.52891155	      9.56496962	   -111.97928238	      6.32179493	     25.41282918	    -40.15067791	      0.00000000	      0.00000000	      0.00000000
      2.58000000	     49.80296198	      2.15788496	     -1.79372795	      0.75344512	      0.96063813	     -0.27738412	     17.88001710	    -14.64345460	      7.73038343	    -63.88264562	      9.76118691	     16.58147539	    -39.15290842	     18.60663883	     -8.43082005	      9.95133539	   -110.52769394	      6.10878555	     26.10021506	    -36.21346606	      0.00000000	      0.00000000	      0.00000000
      2.59000000	     49.85550862	      2.11789379	     -1.76680138	      0.75379544	      0.96057524	     -0.27702326	     17.65500695	    -14.66030356	      7.56675059	    -63.57559864	     10.38983822	     16.36196471	    -40.74720763	     18.71107703	     -8.29151379	      9.73459341	   -108.53647308	      5.41686734	     25.49902924	    -33.24177073	      0.00000000	      0.00000000	      0.00000000
      2.60000000	     49.87701698	      2.06254216	     -1.62394107	      0.75407069	      0.96004414	     -0.27638118	     17.42630724	    -14.61932406	      7.33976386	    -63.20068954	     11.04434991	     16.17374762	    -42.39794326	     18.80729644	     -8.17523799	      8.97082776	   -106.02463416	      4.31334120	     23.67786262	    -31.37520576	      0.00000000	      0.00000000	      0.00000000
      2.61000000	     49.82793691	      2.04806464	     -1.44503769	      0.75380764	      0.95963880	     -0.27636408	     17.24715528	    -14.58649922	      7.12686449	    -62.79093338	     11.64058277	     16.05136619	    -43.98598404	     18.78065631	     -8.15152137	      7.91040993	   -103.07752108	      2.93310535	     20.96470333	    -30.63677524	      0.00000000	      0.00000000	      0.00000000
      2.62000000	     49.71414440	      2.09341701	     -1.32536566	      0.75319197	      0.95975885	     -0.27684430	     17.14324107	    -14.60070513	      7.00295635	    -62.39506436	     12.10121291	     16.01396038	    -45.39855645	     18.56487833	     -8.22845918	      6.83325538	    -99.80223174	      1.46485256	     17.85017862	    -30.93367064	      0.00000000	      0.00000000	      0.00000000
      2.63000000	     49.58831007	      2.17717017	     -1.31307856	      0.75275647	      0.96024082	     -0.27704767	     17.09749458	    -14.65118736	      7.00075369	    -62.05689240	     12.38633043	     16.05141083	    -46.54265876	     18.17451817	     -8.35423853	      5.91241413	    -96.30060775	      0.11617665	     14.84402066	    -32.07770748	      0.00000000	      0.00000000	      0.00000000
      2.64000000	     49.51019923	      2.27091509	     -1.39152865	      0.75267531	      0.96073177	     -0.27671885	     17.06318103	    -14.70140517	      7.10298983	    -61.79746026	     12.51063497	     16.11511163	    -47.35406372	     17.67085411	     -8.47389205	      5.18450504	    -92.66681591	     -0.93389702	     12.34375545	    -33.82255378	      0.00000000	      0.00000000	      0.00000000
      2.65000000	     49.51039813	      2.35890151	     -1.50123648	      0.75271201	      0.96112060	     -0.27627479	     16.98998213	    -14.72618333	      7.25550986	    -61.60978476	     12.54061768	     16.11990620	    -47.80160372	     17.11220372	     -8.57100757	      4.59214939	    -88.98773236	     -1.57664362	     10.56272856	    -35.90919729	      0.00000000	      0.00000000	      0.00000000
      2.66000000	     49.58368753	      2.43148095	     -1.57721601	      0.75262636	      0.96144046	     -0.27612023	     16.84559270	    -14.72882002	      7.38391219	    -61.46919013	     12.57262615	     15.96082875	    -47.88748285	     16.53063077	     -8.66377507	      4.04155743	    -85.32769438	     -1.79397144	      9.52810796	    -38.10653358	      0.00000000	      0.00000000	      0.00000000
      2.67000000	     49.70678168	      2.47694010	     -1.58493544	      0.75243796	      0.96166181	     -0.27620759	     16.62541664	    -14.73100822	      7.40745229	    -61.35333468	     12.69825229	     15.54308912	    -47.64449192	     15.94004393	     -8.77636363	      3.45011088	    -81.70620758	     -1.65294067	      9.12824815	    -40.23517564	      0.00000000	      0.00000000	      0.00000000
      2.68000000	     49.85647111	      2.48868700	     -1.54030164	      0.75231303	      0.96187106	     -0.27617622	     16.35145484	    -14.74855955	      7.25446711	    -61.26051399	     12.96688335	     14.81847963	    -47.13061207	     15.35341600	     -8.91524489	      2.77744455	    -78.09365623	     -1.28060008	      9.17961411	    -42.16987151	      0.00000000	      0.00000000	      0.00000000
      2.69000000	     50.01277731	      2.47723961	     -1.49890752	      0.75235314	      0.96238825	     -0.27577176	     16.06458509	    -14.77114790	      6.88556055	    -61.21544172	     13.35682761	     13.81730743	    -46.42106070	     14.78937238	     -9.06141137	      2.03407130	    -74.43533640	     -0.82841757	      9.48948915	    -43.82429834	      0.00000000	      0.00000000	      0.00000000
      2.70000000	     50.15245968	      2.46675520	     -1.51380503	      0.75256578	      0.96319752	     -0.27520649	     15.81364035	    -14.76297727	      6.32487737	    -61.25758678	     13.76610467	     12.66293728	    -45.59767457	     14.26824826	     -9.17755598	      1.26707318	    -70.69146338	     -0.43514449	      9.90000233	    -45.12762715	      0.00000000	      0.00000000	      0.00000000
      2.71000000	     50.25030157	      2.47259420	     -1.58862771	      0.75287071	      0.96360896	     -0.27509866	     15.64356751	    -14.69351553	      5.68739529	    -61.41623037	     14.03104500	     11.55776530	    -44.73596845	     13.81273783	     -9.22932366	      0.53711354	    -66.87655795	     -0.19854700	     10.30820443	    -46.00422152	      0.00000000	      0.00000000	      0.00000000
